<svg
  xmlns="http://www.w3.org/2000/svg"
  width="24"
  height="24"
  viewBox="0 0 24 24"
  fill="none"
  stroke="currentColor"
  stroke-width="2"
  stroke-linecap="round"
  stroke-linejoin="round"
>
  <path d="M 14 13 L 14 20.8" />
  <path d="M 14 20.8 C14 22 14.7 22.3 15.6 21.5" />
  <path d="M 14.8 11.4 C14.3 11.7 14 12.5 14 13" />
  <path d="M 15.6 21.5 L 21.2 16.6" />
  <path d="M 19.5 4.5 L 13.9 9.4" />
  <path d="M 21.2 16.6 C21.6 16.2 22 15.5 22 14.9" />
  <path d="M 22 14.9 L 22 7.2" />
  <path d="M 22 7.2 C22 6 21.3 5.7 20.4 6.5" />
  <path d="M10 8.3V3.2c0-1.2-.7-1.6-1.6-.8L2.8 7.3C2.3 7.7 2 8.5 2 9v7.8c0 1.2.7 1.5 1.6.7L8 13.7" />
  <path d="M16 10.3V5.2c0-1.2-.7-1.5-1.6-.7L8.8 9.3c-.5.4-.8 1.2-.8 1.7v7.8c0 1.2.7 1.5 1.6.7l4.4-3.8" />
</svg>
