<svg
  xmlns="http://www.w3.org/2000/svg"
  width="24"
  height="24"
  viewBox="0 0 24 24"
  fill="none"
  stroke="currentColor"
  stroke-width="2"
  stroke-linecap="round"
  stroke-linejoin="round"
>
  <path d="M10 8.3V3.2c0-1.2-.7-1.6-1.6-.8L2.8 7.3C2.3 7.7 2 8.5 2 9v7.8c0 1.2.7 1.5 1.6.7L8 13.7" />
  <path d="M14 20.8c0 1.2.7 1.5 1.6.7l5.6-4.9c.4-.4.8-1.1.8-1.7V7.2c0-1.2-.7-1.5-1.6-.7l-5.6 4.9c-.5.3-.8 1.1-.8 1.6z" />
  <path d="M16 10.3V5.2c0-1.2-.7-1.5-1.6-.7L8.8 9.3c-.5.4-.8 1.2-.8 1.7v7.8c0 1.2.7 1.5 1.6.7l4.4-3.8" />
</svg>
